<?xml version="1.0" encoding="UTF-8"?>
<svg id="Calque_2" data-name="Calque 2" xmlns="http://www.w3.org/2000/svg" viewBox="0 0 51.16 98.42">
  <defs>
    <style>
      .cls-1 {
        fill: #10069f;
      }

      .cls-2 {
        fill: #fff;
      }
    </style>
  </defs>
  <g id="Calque_1-2" data-name="Calque 1">
    <g>
      <path class="cls-1" d="M47.41,29.51c.08-1.97.15-3.66.2-4.99H3.56c.05,1.33.12,3.01.2,4.99.11,2.72-3.03,2.31-2.94,9.57.09,7.26,3.57,6.35,3.71,9.76.69,17.27,1.48,37.28,1.7,42.93h38.71c.22-5.65,1.01-25.66,1.7-42.93.14-3.4,3.62-2.5,3.71-9.76.09-7.26-3.05-6.85-2.94-9.57Z"/>
      <path class="cls-2" d="M4.27,39.08c-.09-7.26,3.05-6.85,2.94-9.57-.08-1.97-.15-3.66-.2-4.99h-3.45c.05,1.33.12,3.01.2,4.99.11,2.72-3.03,2.31-2.94,9.57.09,7.26,3.57,6.35,3.71,9.76.69,17.27,1.48,37.28,1.7,42.93h3.45c-.22-5.65-1.01-25.66-1.7-42.93-.14-3.4-3.62-2.5-3.71-9.76Z"/>
      <g>
        <g>
          <path class="cls-1" d="M47.32,25.74h-24.9c-.45,0-.82-.37-.82-.82s.37-.82.82-.82h24.9c.45,0,.82.37.82.82s-.37.82-.82.82Z"/>
          <path class="cls-1" d="M11.59,25.74H3.57c-.45,0-.82-.37-.82-.82s.37-.82.82-.82h8.01c.45,0,.82.37.82.82s-.37.82-.82.82Z"/>
          <rect class="cls-1" x="6.24" y="91.22" width="38.88" height="1.63"/>
          <g>
            <path class="cls-2" d="M11.59,17.98c0,2.65,0,2.68,0,2.71v15.68c0,1.49,1.21,2.71,2.71,2.71s2.71-1.21,2.71-2.71v-7.79c0,1.49,1.21,2.71,2.71,2.71s2.71-1.21,2.71-2.71v-10.6"/>
            <path class="cls-1" d="M14.3,39.89c-1.94,0-3.52-1.58-3.52-3.52v-15.68c0-.07,0-.33,0-2.71,0-.45.37-.82.82-.82h0c.45,0,.82.37.82.82,0,2.39,0,2.65,0,2.7v15.69c0,1.04.85,1.89,1.89,1.89s1.89-.85,1.89-1.89v-7.79c0-.45.37-.82.82-.82s.82.37.82.82c0,1.04.85,1.89,1.89,1.89s1.89-.85,1.89-1.89v-10.6c0-.45.37-.82.82-.82s.82.37.82.82v10.6c0,1.94-1.58,3.52-3.52,3.52-.69,0-1.34-.2-1.89-.55v4.82c0,1.94-1.58,3.52-3.52,3.52Z"/>
          </g>
          <g>
            <path class="cls-1" d="M47.84,21.02c-.11,0-.23-.02-.34-.07-.41-.19-.59-.67-.41-1.08.43-.94.64-1.94.64-2.98,0-3.98-3.24-7.22-7.22-7.22-.31,0-.63.02-.96.07-.23.03-.47-.04-.65-.2-.18-.16-.28-.38-.28-.62v-.05c0-3.99-3.24-7.23-7.22-7.23-2.46,0-4.73,1.24-6.07,3.31-.12.19-.32.32-.54.36-.22.04-.45-.01-.63-.15-1.25-.92-2.73-1.41-4.28-1.41-3.98,0-7.22,3.24-7.22,7.22,0,.18,0,.37.03.59.02.29-.11.58-.36.74-.24.17-.56.19-.82.05-.75-.37-1.56-.57-2.41-.57-2.99,0-5.42,2.43-5.42,5.42,0,.87.2,1.69.59,2.46.2.4.05.89-.36,1.1-.4.2-.89.05-1.1-.36-.5-.98-.77-2.09-.77-3.2,0-3.89,3.16-7.05,7.05-7.05.67,0,1.32.09,1.95.27.28-4.63,4.14-8.31,8.84-8.31,1.63,0,3.19.44,4.57,1.27,1.67-2.13,4.22-3.38,6.95-3.38,4.61,0,8.4,3.54,8.81,8.04.1,0,.19,0,.29,0,4.88,0,8.85,3.97,8.85,8.85,0,1.27-.26,2.5-.79,3.65-.14.3-.43.48-.74.48Z"/>
            <path class="cls-1" d="M34.34,12.59c-.19,0-.38-.07-.53-.2-.34-.29-.38-.81-.09-1.15,1.73-2.01,4.25-3.16,6.9-3.16,1.04,0,2.06.17,3.03.52.43.15.65.62.5,1.04-.15.43-.62.65-1.04.5-.8-.28-1.63-.42-2.48-.42-2.18,0-4.24.95-5.66,2.6-.16.19-.39.28-.62.28Z"/>
          </g>
        </g>
        <path class="cls-1" d="M39.43,98.42H11.73c-5.37,0-6.17-2.75-6.26-5.14l-.07-1.8c-.24-6.04-1.01-25.65-1.69-42.62-.04-1.08-.48-1.57-1.15-2.32C1.45,45.29.06,43.73,0,39.09c-.06-4.75,1.22-6.46,2.16-7.71.52-.7.81-1.08.78-1.84-.2-4.93-.3-7.58-.33-8.12-.06-1.26.25-2.26.93-2.96,1.09-1.14,2.88-1.29,4.65-1.29h3.4c.45,0,.82.37.82.82s-.37.82-.82.82h-3.4c-1.34,0-2.81.09-3.47.79-.36.37-.51.95-.47,1.76.02.55.13,3.13.33,8.13.05,1.34-.54,2.12-1.11,2.88-.84,1.12-1.88,2.52-1.83,6.71.05,4.03,1.17,5.29,2.15,6.39.73.82,1.49,1.68,1.56,3.34.67,16.96,1.45,36.58,1.69,42.62l.07,1.8c.08,1.95.48,3.57,4.63,3.57h27.7c4.15,0,4.55-1.62,4.63-3.57l.07-1.8c.24-6.04,1.01-25.65,1.69-42.62.07-1.66.82-2.51,1.56-3.34.98-1.11,2.1-2.36,2.15-6.39.05-4.19-.99-5.59-1.83-6.71-.57-.76-1.16-1.55-1.11-2.88.2-5,.3-7.58.33-8.13.04-.81-.12-1.39-.47-1.76-.66-.7-2.13-.79-3.47-.79h-20.55c-.45,0-.82-.37-.82-.82s.37-.82.82-.82h20.55c1.78,0,3.57.16,4.65,1.29.67.7.98,1.7.93,2.96-.02.54-.13,3.19-.33,8.12-.03.75.26,1.14.78,1.84.94,1.25,2.22,2.96,2.16,7.71-.06,4.64-1.45,6.2-2.56,7.46-.66.75-1.1,1.24-1.15,2.32-.67,16.96-1.45,36.58-1.69,42.62l-.07,1.8c-.09,2.39-.89,5.14-6.26,5.14Z"/>
      </g>
    </g>
  </g>
</svg>