<?xml version="1.0" encoding="UTF-8"?>
<svg id="Calque_2" data-name="Calque 2" xmlns="http://www.w3.org/2000/svg" viewBox="0 0 107.1 100">
  <defs>
    <style>
      .cls-1 {
        fill: #10069f;
      }

      .cls-2 {
        fill: #fff;
      }
    </style>
  </defs>
  <g id="Calque_1-2" data-name="Calque 1">
    <g>
      <path class="cls-1" d="M95.1,82.4s.01.08.02.12c0,.03-.02.05-.02.08,0,.4-.4.8-1.1,1.3-.8.5-2.1,1.1-3.7,1.5-3.5,1-7.2,1.5-12.9,1.5-5.38,0-12.29-1.35-15.91-2.51,1.64-2.1,2.98-4.37,4.01-6.79,1.5-3.7,2.3-7.6,2.3-11.6v-.7c0-1.2,0-1.9-.2-3.2,0-.03-.03-.05-.04-.08.02-.14.04-.28.04-.42,0-1.3-.9-2.4-2.7-3.4-1.5-.8-3.6-1.6-6.3-2.2-.68-.16-1.39-.31-2.12-.46l-3.39-26.54c1.08.46,2.32.9,3.71,1.3,5.5,1.5,12.8,2.4,20.6,2.4s15.1-.8,20.6-2.4c1.44-.41,2.71-.85,3.81-1.33l-6.71,53.43Z"/>
      <g>
        <path class="cls-1" d="M106.88,17.14c.07-.27.11-.55.11-.84,0-.9-.4-1.8-1.2-2.7-.55-.64-1.46-1.37-2.61-1.95l-1.39-4.25c-.03-.17-.09-.3-.17-.39-.41-2.03-2.96-3.73-7.43-5.01-4.6-1.3-10.5-2-16.9-2s-12.4.7-16.9,2c-4.9,1.4-7.5,3.3-7.5,5.6,0,.03,0,.05,0,.08l-1.26,3.86c-1.17.69-2.06,1.28-2.85,2.07s-1.2,0-1.2,2.7c0,.27.04.53.1.79v6.51c0,1.64,1.19,3.13,3.44,4.43l3.47,27.18c-4.78-.79-10.38-1.21-16.41-1.21-7.8,0-15,.7-20.4,1.8-2.7.5-4.9,1.2-6.4,2-1.8.9-2.7,2.1-2.7,3.3v.4c0,.3-.1.8-.1,1.3-.2,1.4-.2-.8-.2,3.2,0,.31.01.62.02.94-1.37-.24-3.78-.38-5.72.86-1.4.9-2.3,2.3-2.6,4.2-.3,2,.1,3.9,1.3,5.5,1.5,2,4,3.6,7.5,4.7,2.6.8,4.8,1.1,4.8,1.1h.07c.9,1.27,1.91,2.48,3.03,3.6.87.87,1.77,1.67,2.72,2.42,0,.03-.02.05-.02.08v5.6c0,.9.6,1.7,1.8,2.4.9.5,2.3,1,4,1.4,3.4.8,7.9,1.2,12.7,1.2h.2c4.8,0,9.3-.4,12.7-1.2,1.7-.4,3-.9,4-1.4,1.2-.7,1.8-1.5,1.8-2.4v-5.6s-.02-.08-.02-.12c.83-.68,1.64-1.4,2.42-2.18.42-.42.82-.86,1.21-1.3,3.72,1.4,11.31,2.9,17.09,2.9v.1h.2c5,0,9.7-.6,13.3-1.6,1.8-.5,3.2-1.1,4.2-1.8,1.2-.8,1.8-1.8,1.8-2.8l6.86-54.6c2.2-1.29,3.34-2.77,3.34-4.4v-5.9c0-.22-.09-.41-.21-.56ZM60.9,3.7c4.4-1.2,10.2-1.9,16.4-1.9s12,.7,16.4,1.9c4.6,1.3,6.2,2.9,6.2,3.9,0,.4-.2.9-.8,1.4-.6.6-1.6,1.2-2.9,1.7-3.34,1.34-8.42,2.3-14,2.65v-3.45c0-1.5-1.3-2.8-2.8-2.8h-4.1c-1.5,0-2.8,1.3-2.8,2.8v3.46c-5.5-.42-10.4-1.3-13.8-2.56-2.44-.98-3.92-2.14-3.99-3.13,0-.04,0-.09,0-.13.06-1,1.68-2.57,6.19-3.84ZM80.4,9.9v4.25c-.48,1.21-1.69,2.35-3,2.35-1.4,0-2.7-1-3.1-2.4v-4.2c0-.5.4-1,1-1h4.1c.5,0,1,.4,1,1ZM53.99,9.98c.13.14.25.28.41.42.8.7,2,1.4,3.6,2,3.67,1.39,8.93,2.38,14.78,2.69.75,1.92,2.59,3.21,4.62,3.21h0c1.1,0,2.2-.4,3.1-1.2.63-.55,1.13-1.23,1.46-2.03,6.01-.33,11.33-1.31,14.94-2.77,1.4-.6,2.6-1.3,3.4-2,.18-.16.34-.27.49-.37l.87,2.57s.03.09.05.13l.19.56c-.1.8-.9,1.5-1.6,2-1.2.8-3,1.6-5.2,2.2-4.8,1.4-11,2.1-17.7,2.1s-13-.8-17.7-2.1c-2.2-.6-4-1.4-5.2-2.2-.7-.5-1.6-1.2-1.6-2l1.09-3.22ZM18.2,57.4c5.3-1.1,12.4-1.7,20.1-1.7v.1h-.1c7.6,0,14.7.7,20,1.9,2.5.6,4.6,1.3,5.9,2,1.1.6,1.8,1.3,1.8,1.8s-.7,1.2-1.8,1.8c-.49.25-1.09.49-1.73.74-.49-.75-1.39-1.43-2.77-2.04-1.4-.6-3.2-1.1-5.4-1.6-4.5-1-10.2-1.5-16.2-1.5s-11.7.6-16.2,1.5c-2.2.4-4,1-5.4,1.6-1.08.51-1.9,1.07-2.46,1.68-.6-.25-1.17-.51-1.64-.78-1.1-.7-1.8-1-1.8-1.9s2-2.4,7.7-3.6ZM2.8,76.4c-1-1.2-1.3-2.6-1-4.1.3-1.4.8-2.4,1.8-3,1.61-1,3.93-.7,4.92-.51.26,3.02.93,5.95,2.08,8.71.52,1.29,1.13,2.54,1.83,3.74-2.47-.51-7.41-1.88-9.63-4.84ZM54.9,95c0,.2-.2.5-.9.9-.8.4-2.1.8-3.6,1.2-3.3.8-7.6,1.2-12.3,1.2s-9-.4-12.3-1.2c-1.6-.3-2.8-.7-3.6-1.2-.7-.5-.9-.8-.9-.9v-4.36c1.6,1.09,3.3,2.01,5.1,2.76,3.77,1.59,7.64,2.38,11.7,2.4,3.97-.01,7.83-.81,11.5-2.3,1.9-.79,3.65-1.75,5.3-2.89v4.39ZM38.1,94c-7.6,0-14.8-3-20.1-8.4-5.2-5.3-8-12.3-7.9-19.6,0-.66.05-1.49.12-2.28.34.27.73.53,1.18.78.64.34,1.42.68,2.3,1.02.03.03.06.06.1.08.1.05.21.07.32.08,1.08.39,2.32.77,3.68,1.12,5.6,1.4,12.9,2.2,20.5,2.2h-.1v.2c7.7,0,14.9-.7,20.4-2,2.7-.6,4.8-1.4,6.3-2.2.45-.25.85-.51,1.19-.77.01.33.01.66.01,1.07v.7c0,15.4-12.5,28-28,28ZM95.1,82.4s.01.08.02.12c0,.03-.02.05-.02.08,0,.4-.4.8-1.1,1.3-.8.5-2.1,1.1-3.7,1.5-3.5,1-7.2,1.5-12.9,1.5-5.38,0-12.29-1.35-15.91-2.51,1.64-2.1,2.98-4.37,4.01-6.79,1.5-3.7,2.3-7.6,2.3-11.6v-.7c0-1.2,0-1.9-.2-3.2,0-.03-.03-.05-.04-.08.02-.14.04-.28.04-.42,0-1.3-.9-2.4-2.7-3.4-1.5-.8-3.6-1.6-6.3-2.2-.68-.16-1.39-.31-2.12-.46l-3.39-26.54c1.08.46,2.32.9,3.71,1.3,5.5,1.5,12.8,2.4,20.6,2.4s15.1-.8,20.6-2.4c1.44-.41,2.71-.85,3.81-1.33l-6.71,53.43ZM105.3,23.6c0,1-1,1.9-1.9,2.5-1.3.9-3.4,1.8-5.9,2.5-5.4,1.6-12.5,2.4-20.1,2.4s-14.8-.9-20.1-2.4c-2.5-.7-4.5-1.6-5.9-2.5-.9-.6-1.9-1.5-1.9-2.5h-.1v-3.97c1.51,1.29,3.95,2.42,7.3,3.37,5.48,1.59,12.84,2.49,20.6,2.5,7.76,0,15.12-.91,20.6-2.5,3.39-.98,5.89-2.15,7.4-3.49v4.09ZM103.4,18.8c-1.3.9-3.4,1.8-5.9,2.5-5.4,1.6-12.6,2.4-20.2,2.4s-14.8-.9-20.2-2.4c-2.5-.7-4.5-1.6-5.9-2.5-.74-.49-1.53-1.19-1.8-1.97v-.03c0-.13-.03-.26-.08-.37,0-.04-.02-.08-.02-.13,0-.77.72-1.66,1.97-2.49.44,2.15,3.19,4.02,8.03,5.39,4.8,1.4,11.3,2.2,18.1,2.2s13.2-.8,18.1-2.2c4.78-1.35,7.52-3.19,8.01-5.3,1.18.8,1.79,1.66,1.79,2.4,0,1-1,1.9-1.9,2.5Z"/>
        <path class="cls-1" d="M77.4,25.5h0s-.07,0-.1,0c-.03,0-.07,0-.1,0h.2Z"/>
        <path class="cls-2" d="M74.5,63.6c1.2.7,2.4,1,3.7,1s2.5-.3,3.7-1c1.1-.6,2.1-1.5,2.9-2.7,1.7-2.4,2.6-5.4,2.6-8.7s-.9-6.4-2.6-8.7c-.8-1.1-1.8-2.1-2.9-2.7-1.2-.7-2.4-1-3.7-1s-2.5.3-3.7,1c-1.1.6-2.1,1.5-2.9,2.7-1.7,2.4-2.6,5.4-2.6,8.7s.9,6.4,2.6,8.7c.8,1.1,1.8,2.1,2.9,2.7ZM83.4,44.6c1.5,2,2.3,4.7,2.3,7.6s-.8,5.6-2.3,7.6c-.59.8-1.27,1.44-1.99,1.94-.08-1.47-.75-4.09-3.31-8.54-1.6-2.7-1.9-5.4-.9-8,.7-1.9,2-3.1,2-3.1.1-.1.15-.22.19-.35,1.49.35,2.91,1.34,4.01,2.85ZM70.7,52.2c0-2.9.8-5.6,2.3-7.6,1.19-1.61,2.66-2.64,4.3-2.92-.51.64-1.2,1.63-1.7,2.92-.5,1.3-.7,2.8-.7,4.2.1,1.8.7,3.6,1.7,5.4,3.15,5.51,3.16,7.81,3.11,8.36-.5.15-1.01.24-1.51.24-1.9,0-3.8-1.1-5.2-3-1.5-2-2.3-4.7-2.3-7.6Z"/>
        <path class="cls-1" d="M38.2,95.8s-.07,0-.1,0c-.03,0-.07,0-.1,0h.2Z"/>
        <path class="cls-1" d="M35,36.2l1.3-1.1s-.7-1-1-2.6c-.3-2.2.4-4.7,2-7.2,4.6-7.2,1.8-11.6,1.7-11.8l-1.5.9s.6.9.6,2.6c.1,2.2-.8,4.7-2.4,7.3-1.1,1.7-1.8,3.3-2.1,4.9-.2,1.2-.2,2.5,0,3.7.4,2.1,1.4,3.3,1.4,3.3Z"/>
        <path class="cls-1" d="M39.9,28.3l-1.5.9s.6.9.6,2.6c.1,2.2-.8,4.7-2.4,7.3-1.1,1.7-1.8,3.3-2.1,4.9-.2,1.2-.2,2.5,0,3.7.4,2.1,1.4,3.3,1.4,3.3h0s1.3-1.1,1.3-1.1c0,0-.7-1-1-2.6-.3-2.2.4-4.7,2-7.2,4.6-7.2,1.8-11.6,1.7-11.8Z"/>
      </g>
    </g>
  </g>
</svg>