<?xml version="1.0" encoding="UTF-8"?>
<svg id="Calque_2" data-name="Calque 2" xmlns="http://www.w3.org/2000/svg" viewBox="0 0 107.1 115.46">
  <defs>
    <style>
      .cls-1 {
        fill: none;
      }

      .cls-2 {
        fill: #10069f;
      }

      .cls-3 {
        fill: #fff;
      }
    </style>
  </defs>
  <g id="Calque_1-2" data-name="Calque 1">
    <g>
      <path class="cls-2" d="M95.1,91.4s.01.08.02.12c0,.03-.02.05-.02.08,0,.4-.4.8-1.1,1.3-.8.5-2.1,1.1-3.7,1.5-3.5,1-7.2,1.5-12.9,1.5-5.38,0-12.29-1.35-15.91-2.51,1.64-2.1,2.98-4.37,4.01-6.79,1.5-3.7,2.3-7.6,2.3-11.6v-.7c0-1.2,0-1.9-.2-3.2,0-.03-.03-.05-.04-.08.02-.14.04-.28.04-.42,0-1.3-.9-2.4-2.7-3.4-1.5-.8-3.6-1.6-6.3-2.2-.68-.16-1.39-.31-2.12-.46l-3.39-26.54c1.08.46,2.32.9,3.71,1.3,5.5,1.5,12.8,2.4,20.6,2.4s15.1-.8,20.6-2.4c1.44-.41,2.71-.85,3.81-1.33l-6.71,53.43Z"/>
      <g>
        <path class="cls-2" d="M106.88,26.14c.07-.27.11-.55.11-.84,0-.9-.4-1.8-1.2-2.7-.55-.64-1.46-1.37-2.61-1.95l-1.39-4.25c-.03-.17-.09-.3-.17-.39-.41-2.03-2.96-3.73-7.43-5.01-4.6-1.3-10.5-2-16.9-2s-12.4.7-16.9,2c-4.9,1.4-7.5,3.3-7.5,5.6,0,.03,0,.05,0,.08l-1.26,3.86c-1.17.69-2.06,1.28-2.85,2.07s-1.2,0-1.2,2.7c0,.27.04.53.1.79v6.51c0,1.64,1.19,3.13,3.44,4.43l3.47,27.18c-4.78-.79-10.38-1.21-16.41-1.21-7.8,0-15,.7-20.4,1.8-2.7.5-4.9,1.2-6.4,2-1.8.9-2.7,2.1-2.7,3.3v.4c0,.3-.1.8-.1,1.3-.2,1.4-.2-.8-.2,3.2,0,.31.01.62.02.94-1.37-.24-3.78-.38-5.72.86-1.4.9-2.3,2.3-2.6,4.2-.3,2,.1,3.9,1.3,5.5,1.5,2,4,3.6,7.5,4.7,2.6.8,4.8,1.1,4.8,1.1h.07c.9,1.27,1.91,2.48,3.03,3.6.87.87,1.77,1.67,2.72,2.42,0,.03-.02.05-.02.08v5.6c0,.9.6,1.7,1.8,2.4.9.5,2.3,1,4,1.4,3.4.8,7.9,1.2,12.7,1.2h.2c4.8,0,9.3-.4,12.7-1.2,1.7-.4,3-.9,4-1.4,1.2-.7,1.8-1.5,1.8-2.4v-5.6s-.02-.08-.02-.12c.83-.68,1.64-1.4,2.42-2.18.42-.42.82-.86,1.21-1.3,3.72,1.4,11.31,2.9,17.09,2.9v.1h.2c5,0,9.7-.6,13.3-1.6,1.8-.5,3.2-1.1,4.2-1.8,1.2-.8,1.8-1.8,1.8-2.8l6.86-54.6c2.2-1.29,3.34-2.77,3.34-4.4v-5.9c0-.22-.09-.41-.21-.56ZM60.9,12.7c4.4-1.2,10.2-1.9,16.4-1.9s12,.7,16.4,1.9c4.6,1.3,6.2,2.9,6.2,3.9,0,.4-.2.9-.8,1.4-.6.6-1.6,1.2-2.9,1.7-3.34,1.34-8.42,2.3-14,2.65v-3.45c0-1.5-1.3-2.8-2.8-2.8h-4.1c-1.5,0-2.8,1.3-2.8,2.8v3.46c-5.5-.42-10.4-1.3-13.8-2.56-2.44-.98-3.92-2.14-3.99-3.13,0-.04,0-.09,0-.13.06-1,1.68-2.57,6.19-3.84ZM80.4,18.9v4.25c-.48,1.21-1.69,2.35-3,2.35-1.4,0-2.7-1-3.1-2.4v-4.2c0-.5.4-1,1-1h4.1c.5,0,1,.4,1,1ZM53.99,18.98c.13.14.25.28.41.42.8.7,2,1.4,3.6,2,3.67,1.39,8.93,2.38,14.78,2.69.75,1.92,2.59,3.21,4.62,3.21h0c1.1,0,2.2-.4,3.1-1.2.63-.55,1.13-1.23,1.46-2.03,6.01-.33,11.33-1.31,14.94-2.77,1.4-.6,2.6-1.3,3.4-2,.18-.16.34-.27.49-.37l.87,2.57s.03.09.05.13l.19.56c-.1.8-.9,1.5-1.6,2-1.2.8-3,1.6-5.2,2.2-4.8,1.4-11,2.1-17.7,2.1s-13-.8-17.7-2.1c-2.2-.6-4-1.4-5.2-2.2-.7-.5-1.6-1.2-1.6-2l1.09-3.22ZM18.2,66.4c5.3-1.1,12.4-1.7,20.1-1.7v.1h-.1c7.6,0,14.7.7,20,1.9,2.5.6,4.6,1.3,5.9,2,1.1.6,1.8,1.3,1.8,1.8s-.7,1.2-1.8,1.8c-.49.25-1.09.49-1.73.74-.49-.75-1.39-1.43-2.77-2.04-1.4-.6-3.2-1.1-5.4-1.6-4.5-1-10.2-1.5-16.2-1.5s-11.7.6-16.2,1.5c-2.2.4-4,1-5.4,1.6-1.08.51-1.9,1.07-2.46,1.68-.6-.25-1.17-.51-1.64-.78-1.1-.7-1.8-1-1.8-1.9s2-2.4,7.7-3.6ZM2.8,85.4c-1-1.2-1.3-2.6-1-4.1.3-1.4.8-2.4,1.8-3,1.61-1,3.93-.7,4.92-.51.26,3.02.93,5.95,2.08,8.71.52,1.29,1.13,2.54,1.83,3.74-2.47-.51-7.41-1.88-9.63-4.84ZM54.9,104c0,.2-.2.5-.9.9-.8.4-2.1.8-3.6,1.2-3.3.8-7.6,1.2-12.3,1.2s-9-.4-12.3-1.2c-1.6-.3-2.8-.7-3.6-1.2-.7-.5-.9-.8-.9-.9v-4.36c1.6,1.09,3.3,2.01,5.1,2.76,3.77,1.59,7.64,2.38,11.7,2.4,3.97-.01,7.83-.81,11.5-2.3,1.9-.79,3.65-1.75,5.3-2.89v4.39ZM38.1,103c-7.6,0-14.8-3-20.1-8.4-5.2-5.3-8-12.3-7.9-19.6,0-.66.05-1.49.12-2.28.34.27.73.53,1.18.78.64.34,1.42.68,2.3,1.02.03.03.06.06.1.08.1.05.21.07.32.08,1.08.39,2.32.77,3.68,1.12,5.6,1.4,12.9,2.2,20.5,2.2h-.1v.2c7.7,0,14.9-.7,20.4-2,2.7-.6,4.8-1.4,6.3-2.2.45-.25.85-.51,1.19-.77.01.33.01.66.01,1.07v.7c0,15.4-12.5,28-28,28ZM95.1,91.4s.01.08.02.12c0,.03-.02.05-.02.08,0,.4-.4.8-1.1,1.3-.8.5-2.1,1.1-3.7,1.5-3.5,1-7.2,1.5-12.9,1.5-5.38,0-12.29-1.35-15.91-2.51,1.64-2.1,2.98-4.37,4.01-6.79,1.5-3.7,2.3-7.6,2.3-11.6v-.7c0-1.2,0-1.9-.2-3.2,0-.03-.03-.05-.04-.08.02-.14.04-.28.04-.42,0-1.3-.9-2.4-2.7-3.4-1.5-.8-3.6-1.6-6.3-2.2-.68-.16-1.39-.31-2.12-.46l-3.39-26.54c1.08.46,2.32.9,3.71,1.3,5.5,1.5,12.8,2.4,20.6,2.4s15.1-.8,20.6-2.4c1.44-.41,2.71-.85,3.81-1.33l-6.71,53.43ZM105.3,32.6c0,1-1,1.9-1.9,2.5-1.3.9-3.4,1.8-5.9,2.5-5.4,1.6-12.5,2.4-20.1,2.4s-14.8-.9-20.1-2.4c-2.5-.7-4.5-1.6-5.9-2.5-.9-.6-1.9-1.5-1.9-2.5h-.1v-3.97c1.51,1.29,3.95,2.42,7.3,3.37,5.48,1.59,12.84,2.49,20.6,2.5,7.76,0,15.12-.91,20.6-2.5,3.39-.98,5.89-2.15,7.4-3.49v4.09ZM103.4,27.8c-1.3.9-3.4,1.8-5.9,2.5-5.4,1.6-12.6,2.4-20.2,2.4s-14.8-.9-20.2-2.4c-2.5-.7-4.5-1.6-5.9-2.5-.74-.49-1.53-1.19-1.8-1.97v-.03c0-.13-.03-.26-.08-.37,0-.04-.02-.08-.02-.13,0-.77.72-1.66,1.97-2.49.44,2.15,3.19,4.02,8.03,5.39,4.8,1.4,11.3,2.2,18.1,2.2s13.2-.8,18.1-2.2c4.78-1.35,7.52-3.19,8.01-5.3,1.18.8,1.79,1.66,1.79,2.4,0,1-1,1.9-1.9,2.5Z"/>
        <path class="cls-2" d="M77.4,34.5h0s-.07,0-.1,0c-.03,0-.07,0-.1,0h.2Z"/>
        <path class="cls-3" d="M74.5,72.6c1.2.7,2.4,1,3.7,1s2.5-.3,3.7-1c1.1-.6,2.1-1.5,2.9-2.7,1.7-2.4,2.6-5.4,2.6-8.7s-.9-6.4-2.6-8.7c-.8-1.1-1.8-2.1-2.9-2.7-1.2-.7-2.4-1-3.7-1s-2.5.3-3.7,1c-1.1.6-2.1,1.5-2.9,2.7-1.7,2.4-2.6,5.4-2.6,8.7s.9,6.4,2.6,8.7c.8,1.1,1.8,2.1,2.9,2.7ZM83.4,53.6c1.5,2,2.3,4.7,2.3,7.6s-.8,5.6-2.3,7.6c-.59.8-1.27,1.44-1.99,1.94-.08-1.47-.75-4.09-3.31-8.54-1.6-2.7-1.9-5.4-.9-8,.7-1.9,2-3.1,2-3.1.1-.1.15-.22.19-.35,1.49.35,2.91,1.34,4.01,2.85ZM70.7,61.2c0-2.9.8-5.6,2.3-7.6,1.19-1.61,2.66-2.64,4.3-2.92-.51.64-1.2,1.63-1.7,2.92-.5,1.3-.7,2.8-.7,4.2.1,1.8.7,3.6,1.7,5.4,3.15,5.51,3.16,7.81,3.11,8.36-.5.15-1.01.24-1.51.24-1.9,0-3.8-1.1-5.2-3-1.5-2-2.3-4.7-2.3-7.6Z"/>
        <path class="cls-2" d="M38.2,104.8s-.07,0-.1,0c-.03,0-.07,0-.1,0h.2Z"/>
        <path class="cls-2" d="M35,45.2l1.3-1.1s-.7-1-1-2.6c-.3-2.2.4-4.7,2-7.2,4.6-7.2,1.8-11.6,1.7-11.8l-1.5.9s.6.9.6,2.6c.1,2.2-.8,4.7-2.4,7.3-1.1,1.7-1.8,3.3-2.1,4.9-.2,1.2-.2,2.5,0,3.7.4,2.1,1.4,3.3,1.4,3.3Z"/>
        <path class="cls-2" d="M39.9,37.3l-1.5.9s.6.9.6,2.6c.1,2.2-.8,4.7-2.4,7.3-1.1,1.7-1.8,3.3-2.1,4.9-.2,1.2-.2,2.5,0,3.7.4,2.1,1.4,3.3,1.4,3.3h0s1.3-1.1,1.3-1.1c0,0-.7-1-1-2.6-.3-2.2.4-4.7,2-7.2,4.6-7.2,1.8-11.6,1.7-11.8Z"/>
      </g>
    </g>
    <polyline class="cls-1" points="32.8 0 32.8 .6 32.8 3.8 32.7 40.1 32.7 42.8 32.7 47.1"/>
    <g>
      <g>
        <polygon class="cls-3" points="84.7 93.6 98.2 98.7 98.2 110.8 88.2 114.7 75.4 108.8 75.3 97.3 84.7 93.6"/>
        <path class="cls-2" d="M88.18,115.11l-13.16-6.07-.1-12,9.77-3.85,13.88,5.24v12.62l-10.39,4.05ZM75.77,108.56l12.44,5.73,9.61-3.75v-11.58l-13.12-4.96-9.03,3.55.1,11Z"/>
      </g>
      <g>
        <polygon class="cls-3" points="75.9 95.8 70.6 97.6 62.2 93.6 62.3 105.6 70.3 109 75.4 107.4 75.6 98 75.9 95.8"/>
        <path class="cls-2" d="M70.28,109.4l-8.35-3.55-.11-12.85,8.8,4.19,5.73-1.95-.38,2.8-.2,9.63-5.49,1.72ZM62.67,105.35l7.65,3.25,4.71-1.48.19-9.13.22-1.64-4.87,1.65-8-3.81.09,11.15Z"/>
      </g>
      <g>
        <polygon class="cls-3" points="62.8 93.3 74.1 90.1 82.3 93.5 82.4 94.1 70.4 97.5 62.6 93.7 62.8 93.3"/>
        <path class="cls-2" d="M70.36,97.9l-8.27-4.03.44-.89,11.58-3.28,8.51,3.53.19,1.14-12.46,3.53ZM63.2,93.58l7.23,3.52,11.54-3.27v-.06s-7.9-3.27-7.9-3.27l-10.88,3.08Z"/>
      </g>
      <g>
        <g>
          <path class="cls-2" d="M87.5,115c.5.2,1,0,1.5-.2l9.1-3.6c.4-.1.5-.6.5-1v-11.3c0-.2-.2-.6-.4-.7l-5.1-1.9-3.9-1.4c-1.4-.5-2.8-1.1-4.2-1.5s-1.3.2-1.9.4l-3.5,1.3-3.8,1.3c-.4.2-.9.5-.9,1v10.8c0,.4.2.9.6,1.1l1.6.8,10.4,4.8h0v.1ZM94.6,99.6l-6.6,2.3-8.4-3.5-3.3-1.3,5.7-2,2.7-.9,1.8.7,4.3,1.5,4.9,1.8,1.4.5-2.6.9h.1ZM80.5,110.9l-4.2-2c-.3-.1-.5-.3-.5-.7v-10.6l3.6,1.5,8.2,3.4v11.7l-7.1-3.3ZM88.4,114.2v-11.8l9.4-3.3v11.3l-4.7,1.9-4.7,1.8h0v.1Z"/>
          <path class="cls-2" d="M87.93,115.46c-.19,0-.38-.03-.58-.11l-.24-.09v-.11l-10.18-4.7-1.61-.81c-.56-.28-.81-.92-.81-1.44v-10.8c0-.78.78-1.17,1.11-1.34l3.85-1.32,3.49-1.3c.13-.04.21-.11.31-.19.38-.31.75-.53,1.83-.22.95.27,1.91.64,2.83.99.46.18.93.35,1.39.52l3.9,1.4,5.1,1.9c.37.18.64.72.64,1.05v11.3c0,.74-.29,1.24-.78,1.36l-9.05,3.58c-.37.15-.77.31-1.2.31ZM87.97,102.3v12.41c.27,0,.56-.13.89-.26l9.1-3.6c.08-.02.14-.09.19-.19l-4.91,1.98-4.71,1.8-.1-.25h-.41v-11.91h-.04s-.01,0-.01,0ZM80.66,110.56l6.57,3.05v-10.86l-11.05-4.59v10.04c0,.2.06.28.24.34l4.24,2.02ZM88.77,102.67v10.89l4.19-1.6,4.46-1.8v-10.52l-8.65,3.04ZM98.17,98.75v11.84c.04-.12.05-.25.05-.39v-11.3s-.02-.09-.05-.15ZM75.37,97.14c-.07.09-.1.17-.1.26v10.8c0,.28.14.64.39.76l.06.03c-.19-.19-.3-.46-.3-.79v-11.04l-.05-.02ZM77.37,97.12l2.36.93,8.27,3.45,4.37-1.52h-.11l3.7-1.28-9.59-3.44-1.69-.66-2.57.86-4.74,1.66ZM84.7,93.8l1.93.75,4.29,1.5,7.09,2.58.08-.03s-.04-.06-.06-.07l-5.06-1.88-3.9-1.4c-.47-.17-.94-.35-1.4-.52-.91-.35-1.85-.71-2.77-.97-.78-.22-.93-.1-1.14.07-.13.11-.29.24-.54.32l-3.49,1.3-3.81,1.3c-.13.07-.24.13-.34.2l9.12-3.15Z"/>
        </g>
        <g>
          <path class="cls-2" d="M74.4,96.7c1.1-.3,2.2-.7,3.3-1,.5-.2,3.1-1,3.2-1.6l-2.1.6-8.2,2.4-7.6-3.6,7.1-2,4.4-1.1,7.3,3.2c.4.2.6.2,1,0h.2c0-.1,0-.3-.2-.4l-7.8-3.4c-.4-.2-.9-.1-1.3,0l-3.7,1-7.4,2.1c-.5.1-.9.6-.9,1.1v10.6c0,.7.4,1.3,1.1,1.6l7.1,3.1c.3.1.8.2,1.1,0l3.4-1.2v-.8l-3.4,1.2v-10.7l3.6-1h-.2v-.1ZM70,108.4l-7-3c-.4-.2-.7-.6-.7-1v-10.3l4.6,2.2,3.1,1.4v10.7h0Z"/>
          <path class="cls-2" d="M70.57,109.8c-.29,0-.59-.08-.79-.14l-7.13-3.11c-.83-.36-1.33-1.08-1.33-1.94v-10.6c0-.69.53-1.33,1.2-1.47l7.37-2.09,3.7-1c.53-.13,1.08-.22,1.57.03l7.78,3.39c.29.14.43.39.43.74v.38h-.49c-.46.21-.78.2-1.25-.04l-.3-.13-.06.36c-.1.6-1.14,1.08-3.03,1.74-.18.06-.32.11-.4.15-.44.12-.85.25-1.26.38h.77l-5.98,1.66v9.88l3.4-1.2v1.6l-3.65,1.29c-.15.11-.35.15-.55.15ZM62.24,105.25c.15.26.39.47.71.6l7.1,3.1c.3.1.62.11.74.03l3.23-1.16-3.4,1.2v-11.52l3.4-.94v-.08l-3.46,1.01-8.33-3.94s-.04.05-.05.08l4.87,2.33,3.31,1.5v11.51l-7.52-3.22c-.25-.12-.45-.29-.61-.49ZM62.67,94.7v9.7c0,.24.21.52.49.66l6.46,2.77v-9.89l-2.88-1.3-4.07-1.95ZM64.06,93.59l6.57,3.11,10.4-3.03-6.56-2.88-4.28,1.07-6.12,1.73ZM74.26,90.07c-.16.02-.32.05-.48.09l-1.34.36,1.82-.45ZM74.78,90.12l.13.06-.06-.03s-.04-.02-.07-.03Z"/>
        </g>
        <g>
          <path class="cls-2" d="M68.5,93.8c0,.3.9.5.9,0s-.8-.4-.9,0Z"/>
          <path class="cls-2" d="M69.03,94.48c-.44,0-.91-.26-.91-.68v-.09c.12-.44.62-.66,1.01-.62.38.05.64.33.64.71,0,.22-.1.42-.27.54-.13.09-.29.14-.48.14Z"/>
        </g>
        <g>
          <path class="cls-2" d="M71,94.4c.1.5.6.5.9.3-.2-.4-.5-.6-.9-.3Z"/>
          <path class="cls-2" d="M71.49,95.2c-.12,0-.24-.02-.35-.07-.27-.11-.45-.35-.51-.66l-.05-.23.19-.14c.32-.24.6-.24.77-.2.28.07.51.28.69.63l.15.3-.28.18c-.19.12-.4.19-.61.19Z"/>
        </g>
        <g>
          <path class="cls-2" d="M72.9,104c.1.3.7.2.8-.2,0-.1-.3-.3-.5-.2s-.4.3-.3.4h0Z"/>
          <path class="cls-2" d="M73.19,104.55c-.27,0-.49-.13-.6-.33l-.09-.09v-.27c.06-.34.46-.55.53-.59.22-.11.49-.08.73.07.2.12.31.29.31.47-.12.52-.52.74-.85.75-.01,0-.02,0-.03,0Z"/>
        </g>
        <g>
          <path class="cls-2" d="M78.1,107.7c.2.2.7.5.9.3s0-.3,0-.3l-.7-.4h-.3v.3h.1v.1Z"/>
          <path class="cls-2" d="M78.82,108.44c-.37,0-.78-.27-.98-.47h-.22v-1.05h.77l.79.45c.1.05.24.18.27.38.02.13,0,.32-.19.51-.13.13-.28.18-.44.18ZM78.81,108.02s.01,0,.02.01h-.02Z"/>
        </g>
        <g>
          <path class="cls-2" d="M81,108.2c0,.3.8.6.9.2s-.8-.6-.9-.2Z"/>
          <path class="cls-2" d="M81.6,108.97s-.08,0-.12,0c-.42-.05-.86-.36-.86-.76v-.09c.07-.23.24-.4.48-.47.33-.09.73,0,.97.23.17.17.24.39.18.62-.07.3-.33.48-.66.48Z"/>
        </g>
        <g>
          <path class="cls-2" d="M93.6,103.6c0,.4.9,0,.8-.4s-.9,0-.8.4Z"/>
          <path class="cls-2" d="M93.78,104.14c-.09,0-.18-.02-.26-.06-.17-.08-.28-.24-.29-.44-.04-.24.05-.49.25-.69.21-.2.56-.37.88-.28.21.06.35.21.41.43.07.27-.04.55-.31.77-.18.15-.43.27-.67.27ZM93.96,103.54s0,0,0,0v.04s0-.03,0-.04Z"/>
        </g>
        <g>
          <path class="cls-2" d="M92.8,106.4c0,.1.4.1.6,0s.4-.3.3-.5c-.3-.1-.7.1-.8.4h-.1v.1Z"/>
          <path class="cls-2" d="M93.02,106.85c-.15,0-.29-.03-.39-.09l-.18-.11-.03-.72h.25c.25-.34.73-.52,1.14-.38l.15.05.07.14c.08.15.09.32.03.48-.1.3-.38.47-.5.53-.13.06-.34.12-.54.12Z"/>
        </g>
        <g>
          <path class="cls-2" d="M94.6,108.6c.1.3.8,0,.7-.4s-.8,0-.7.4Z"/>
          <path class="cls-2" d="M94.79,109.1c-.26,0-.47-.14-.55-.38v-.03c-.12-.47.26-.91.67-1.01.35-.09.66.09.75.43.11.45-.24.84-.64.95-.08.02-.16.03-.23.03Z"/>
        </g>
        <g>
          <path class="cls-2" d="M82.9,96.9c.2.5.7.5,1.1.2-.3-.3-.7-.5-1.1-.2Z"/>
          <path class="cls-2" d="M83.45,97.68c-.09,0-.18-.01-.26-.04-.29-.08-.51-.3-.64-.6l-.11-.27.23-.17c.49-.37,1.07-.28,1.59.24l.31.31-.35.26c-.24.18-.52.28-.77.28Z"/>
        </g>
        <g>
          <path class="cls-2" d="M86,98.7c-.1.3.7.6.8.3,0-.2-.7-.6-.8-.3Z"/>
          <path class="cls-2" d="M86.57,99.5c-.13,0-.25-.03-.34-.06-.46-.15-.7-.51-.59-.86h0c.07-.2.26-.42.65-.35.31.05.88.36.88.77l-.02.12c-.07.2-.24.34-.47.37-.04,0-.08,0-.11,0Z"/>
        </g>
        <g>
          <path class="cls-2" d="M64.5,103.7c.3.2.7.5.9.1s-.5-.6-.9-.5,0,.3,0,.4Z"/>
          <path class="cls-2" d="M65.11,104.37c-.29,0-.55-.18-.78-.33l-.17-.11-.02-.08c-.11-.12-.27-.31-.19-.56.05-.18.2-.3.44-.36.4-.1.99,0,1.26.33.16.2.18.46.07.7-.13.25-.31.35-.44.38-.06.02-.12.02-.17.02Z"/>
        </g>
      </g>
    </g>
    <polygon class="cls-2" points="51.5 21.7 53.55 25.14 64.25 29.33 81.16 29.33 92.72 28.5 99.9 25.5 103.35 21.7 105.98 24.18 105.98 26.82 99.9 30.57 90.09 33.05 79.72 33.61 68.28 33.61 59.33 31.77 51.5 29.13 47.7 26.09 49.74 22.81 51.5 21.7"/>
  </g>
</svg>