<?xml version="1.0" encoding="UTF-8"?>
<svg id="Calque_2" data-name="Calque 2" xmlns="http://www.w3.org/2000/svg" viewBox="0 0 46.99 120.45">
  <defs>
    <style>
      .cls-1 {
        fill: #10069f;
      }

      .cls-2 {
        fill: #fff;
      }
    </style>
  </defs>
  <g id="Calque_1-2" data-name="Calque 1">
    <polygon class="cls-1" points=".86 14.84 8.23 17.37 22.73 18.33 35.29 16.93 44.66 14.37 45.99 107.97 41.18 109.98 32.03 112.7 21.1 113.55 11.79 112.2 2.1 108.98 .86 14.84"/>
    <g>
      <path class="cls-2" d="M20.68,85.18c-.1,0-.3,0-.4-.1-.4-.3-.6-1-.6-1.7l2-15.4-6.9-.5c-.4,0-.6-.4-.8-.9-.1-.5-.1-1.1,0-1.5l11.1-23.5c.3-.6.8-.8,1.2-.5.4.3.6,1,.6,1.6l-1.6,14.3h6.9c.4,0,.7.4.8.9.2.5.1,1.1,0,1.6l-11.5,25.1c-.2.4-.5.6-.8.6h0ZM16.78,64.58l6.2.5c.3,0,.5.2.7.6.2.3.3.8.2,1.2l-1.4,10.3,7.9-17.1h-6.2c-.3,0-.6-.2-.7-.6-.2-.3-.3-.8-.2-1.2l1.1-9.7-7.6,16h0Z"/>
      <g>
        <path class="cls-1" d="M45.99,14h-.42v-.08l-.08-.25c-3.08-.92-4.5-3.17-4.42-7.08v-.17c0-1.08-1.08-2-3.17-2.67.33-1.33-.33-2.67-1.58-3.08-.25-.08-.58-.25-.92-.33-.58-.25-1.25-.33-1.83-.33-1.58,0-3.17.75-4.25,2h-.08c-2.08,0-4.25-.17-6.5-.17h-.67c-4,0-7.92.33-11.83,1.08-3.92.83-5.83,2-5.83,3.58,0,3.92-1.42,6.25-4.42,7.08v.46s0-.46,0-.46l.54,51.04.46,43.87v.25c2.17,2.75,4.08,5.67,5.67,8.75v.17l.08.17h.17c11.16,3.5,23.08,3.5,34.16,0h.25v-.17c1.58-3.17,3.42-6.08,5.67-8.75v-.42l-1-94.5ZM29.66,3.33h0l.42-.5c.67-.83,1.75-1.33,2.83-1.33s.83,0,1.25.17c.33.08.67.25.92.33.25,0,.33.25.42.5,0,.25,0,.42-.25.58-1.25.92-2.58,1.67-4,2.33h-.25c-1.58.17-2.58.25-3.33.33l2-2.42ZM10.33,4.58v-.25h.08c3.83-.67,7.75-1,11.66-1s3.33,0,4.92.17l-1.08,1.33c-1-.33-2.08-.5-3.08-.5h-.17c-2.5,0-4.58.83-4.58,1.83s2.08,1.83,4.58,1.83c1.08,0,2.08-.17,3.08-.42.5.17,1.08.25,1.58.25,1.33,0,2.58-.17,3.92-.33h.17c.42,0,1.17-.25,4.58-2.42,1.92.58,2.42,1.08,2.5,1.17-.17.17-1,1-4.83,1.75-3.83.67-7.75,1-11.66,1s-7.83-.25-11.66-.92c-3.83-.75-4.67-1.58-4.83-1.75.17-.17,1-1,4.83-1.75ZM5.33,8.25h.08c1.33.58,2.67,1.08,4.08,1.33,4.17.75,8.33,1.17,12.5,1.08,4.17,0,8.42-.33,12.5-1.08,1.42-.25,2.75-.67,4.08-1.33.25,2.33,1.5,4.42,3.42,5.75-13,4.5-27.08,4.5-40.08,0,1.92-1.33,3.17-3.42,3.42-5.75ZM39.16,116.58c-10.5,3.17-21.75,3.17-32.24,0-1.08-2.08-2.25-4.08-3.67-5.92,12.75,4.67,26.83,4.67,39.58,0-1.42,1.83-2.58,3.83-3.67,5.92ZM3.3,108.57L1.69,15.84c6.54,2.21,13.43,3.4,20.39,3.4,7.42,0,14.66-1.25,21.58-3.83v22.75l-.03,8.13.03-4.05v11.83l1,53.75c-13.21,5.57-28.01,5.81-41.36.74Z"/>
        <polygon class="cls-1" points="43.58 54.16 43.58 57.91 43.63 46.29 43.58 52.07 43.58 54.16"/>
      </g>
    </g>
  </g>
</svg>