<?xml version="1.0" encoding="UTF-8"?>
<svg id="Calque_2" data-name="Calque 2" xmlns="http://www.w3.org/2000/svg" viewBox="0 0 68.4 94">
  <defs>
    <style>
      .cls-1 {
        fill: #10069f;
      }

      .cls-2 {
        fill: #fff;
      }
    </style>
  </defs>
  <g id="Calque_1-2" data-name="Calque 1">
    <path class="cls-1" d="M34.3.1C25.1.1,16.8,1.1,10.7,2.8c-3.1.9-5.6,1.9-7.5,3.1S0,8.7,0,10.7s0,0,0,0h0v.4l2.5,29.6v.3l3.8,44.4h0c0,1.7,1.2,2.9,2.7,3.9s3.6,1.8,6.1,2.5c5,1.4,11.7,2.2,19.1,2.2s14.2-.8,19.1-2.2c2.5-.7,4.5-1.5,6.1-2.5,1.5-1,2.7-2.3,2.7-3.9h0l3.8-44.4v-.2l2.5-29.8v-.3h0v-.3c0-1.9-1.4-3.4-3.2-4.6-1.9-1.2-4.4-2.3-7.5-3.1-6.1-1.7-14.4-2.7-23.6-2.7h0l.2.1ZM34.3,3c9,0,17.1,1,22.8,2.6,2.9.8,5.2,1.8,6.6,2.8,1.4.9,1.9,1.7,1.9,2.3v.3c-.2.5-.7,1.3-1.9,2.1-1.5,1-3.7,1.9-6.6,2.7-5.8,1.6-13.9,2.6-22.8,2.6s-17.1-1-22.8-2.6c-2.9-.8-5.2-1.8-6.6-2.7-1.3-.9-1.8-1.7-1.9-2.2h0c0-.7.5-1.5,1.9-2.5,1.5-1,3.7-1.9,6.6-2.8,5.8-1.6,13.9-2.6,22.8-2.6h0ZM3.3,15.7c1.9,1.2,4.3,2.2,7.3,3,6.1,1.7,14.4,2.8,23.6,2.8s17.5-1,23.6-2.8c3-.8,5.5-1.8,7.3-3l-2.1,25.2c0,.5-.5,1.2-1.7,1.9-1.3.9-3.4,1.8-6.1,2.5-5.3,1.5-12.8,2.4-21,2.4s-15.7-.9-21-2.4c-2.6-.7-4.8-1.6-6.1-2.5-1.2-.8-1.6-1.5-1.7-2L3.3,15.6v.1ZM34.3,30.7c-10.4,0-20,1.4-25.9,4-.4.2-.6.4-.8.8-.1.4-.1.8,0,1.1.2.4.4.6.8.8.4.1.8.1,1.1,0,5.2-2.2,14.7-3.7,24.8-3.7s19.5,1.5,24.8,3.7h0c.4.2.8.2,1.1,0,.4-.1.7-.4.8-.8.2-.4.2-.8,0-1.1-.1-.4-.4-.7-.8-.8-6-2.6-15.6-4-25.9-4h0Z"/>
    <g>
      <path class="cls-2" d="M50.66,76.19c-1.52-1.62-3.81-3.24-6.43-4.53-2.62-1.3-5.29-2.14-7.5-2.37-2.43-.25-4.1.29-4.7,1.5,0,.02-.02.04-.03.05l-.02.04-1.37,2.89c-.6,1.22-.01,2.87,1.66,4.64,1.52,1.63,3.81,3.24,6.43,4.54,2.62,1.3,5.29,2.14,7.5,2.36.39.04.76.06,1.11.06,1.83,0,3.09-.54,3.6-1.57l1.42-2.98s0,0,0,0h0c.59-1.21,0-2.86-1.66-4.64h0ZM49.74,83.25c-.34.68-1.61.97-3.41.79-2.07-.21-4.58-1.01-7.07-2.24-2.49-1.23-4.64-2.75-6.06-4.26-1.24-1.32-1.78-2.51-1.44-3.2l.45-.94s.03.06.05.09c.04.07.07.14.11.21.04.07.08.14.12.21.04.08.09.15.15.23.04.07.09.13.14.2l.14.19c.11.15.24.3.37.46.12.14.25.29.39.43.05.05.1.11.15.16.08.09.18.19.27.28.07.07.15.14.23.22.07.07.15.14.23.21.16.15.33.3.51.44.08.07.17.14.26.22.09.07.18.14.27.22.09.07.18.14.28.21.39.3.81.59,1.24.88.19.13.39.25.59.38.76.47,1.57.93,2.42,1.35.39.2.79.38,1.18.55,1.42.63,2.81,1.1,4.11,1.42.32.08.63.15.93.2.11.02.22.04.33.06.74.13,1.43.19,2.06.19.11,0,.22,0,.32,0,.04,0,.07,0,.11,0,.11,0,.21-.01.31-.02.15-.01.3-.03.44-.05.08-.01.16-.03.24-.04.02,0,.04,0,.06-.01l-.47,1h0ZM50.03,80.98c-2.04.49-5.71-.36-9.35-2.16-3.59-1.78-6.48-4.16-7.36-6.08-.03-.07-.06-.14-.09-.21-.03-.07-.05-.15-.08-.23-.07-.24-.1-.5-.05-.73,0-.03.01-.06.03-.1,0-.03.02-.06.03-.08v-.02s.02-.02.02-.02c.27-.54,1.15-.83,2.41-.83.31,0,.64.02,1,.05,2.07.21,4.58,1,7.07,2.24,2.49,1.23,4.64,2.75,6.06,4.26,1,1.07,1.54,2.04,1.54,2.74,0,.17-.03.32-.1.46-.2.41-.73.61-1.13.71h0Z"/>
      <g>
        <path class="cls-2" d="M17.05,72.32c-1.34,0-2.43-1.09-2.43-2.43s1.09-2.43,2.43-2.43,2.43,1.09,2.43,2.43-1.09,2.43-2.43,2.43ZM17.05,68.5c-.77,0-1.4.63-1.4,1.4s.63,1.4,1.4,1.4,1.4-.63,1.4-1.4-.63-1.4-1.4-1.4Z"/>
        <path class="cls-2" d="M26.22,73.46c-.72,0-1.31-.59-1.31-1.31s.59-1.31,1.31-1.31,1.31.59,1.31,1.31-.59,1.31-1.31,1.31ZM26.22,71.88c-.15,0-.28.13-.28.28s.13.28.28.28.28-.13.28-.28-.13-.28-.28-.28Z"/>
        <path class="cls-2" d="M28.78,70.08c-.68,0-1.24-.55-1.24-1.24s.55-1.24,1.24-1.24,1.24.55,1.24,1.24-.55,1.24-1.24,1.24ZM28.78,68.65c-.11,0-.21.09-.21.21s.09.21.21.21.21-.09.21-.21-.09-.21-.21-.21Z"/>
        <path class="cls-2" d="M30.92,72.62c-.74,0-1.34-.6-1.34-1.34s.6-1.34,1.34-1.34,1.34.6,1.34,1.34-.6,1.34-1.34,1.34ZM30.92,70.98c-.17,0-.31.14-.31.31s.14.31.31.31.31-.14.31-.31-.14-.31-.31-.31Z"/>
        <path class="cls-2" d="M36.88,60.94c-.82,0-1.48-.67-1.48-1.48s.67-1.48,1.48-1.48,1.48.67,1.48,1.48-.67,1.48-1.48,1.48ZM36.88,59c-.25,0-.45.2-.45.45s.2.45.45.45.45-.2.45-.45-.2-.45-.45-.45Z"/>
        <path class="cls-2" d="M39.91,61.74c-.52,0-.94-.42-.94-.94s.42-.94.94-.94.94.42.94.94-.42.94-.94.94ZM39.91,60.71c-.05,0-.09.04-.09.09s.04.09.09.09.09-.04.09-.09-.04-.09-.09-.09Z"/>
        <path class="cls-2" d="M39.17,57.26c-.57,0-1.04-.47-1.04-1.04s.47-1.04,1.04-1.04,1.04.47,1.04,1.04-.47,1.04-1.04,1.04ZM39.17,56.22h0s0,0,0,0Z"/>
        <path class="cls-2" d="M20.78,60.69c-.79,0-1.43-.64-1.43-1.43s.64-1.43,1.43-1.43,1.43.64,1.43,1.43-.64,1.43-1.43,1.43ZM20.78,58.85c-.22,0-.4.18-.4.4s.18.4.4.4.4-.18.4-.4-.18-.4-.4-.4Z"/>
        <path class="cls-2" d="M17.82,59.05c-.61,0-1.11-.5-1.11-1.11s.5-1.11,1.11-1.11,1.11.5,1.11,1.11-.5,1.11-1.11,1.11ZM17.82,57.86s-.08.04-.08.08.04.08.08.08.08-.04.08-.08-.04-.08-.08-.08Z"/>
        <path class="cls-2" d="M19.66,55.52c-.58,0-1.06-.48-1.06-1.06s.48-1.06,1.06-1.06,1.06.48,1.06,1.06-.48,1.06-1.06,1.06ZM19.66,54.43s-.03.02-.03.03c0,.04.06.04.06,0,0-.02-.02-.03-.03-.03h0Z"/>
        <path class="cls-1" d="M24.79,45.04c-.86,0-1.56-.7-1.56-1.56s.7-1.56,1.56-1.56,1.56.7,1.56,1.56-.7,1.56-1.56,1.56ZM24.79,42.95c-.29,0-.53.24-.53.53s.24.53.53.53.53-.24.53-.53-.24-.53-.53-.53Z"/>
        <path class="cls-1" d="M20.81,42.16c-1.27,0-2.3-1.03-2.3-2.3s1.03-2.3,2.3-2.3,2.3,1.03,2.3,2.3-1.03,2.3-2.3,2.3ZM20.81,38.58c-.7,0-1.27.57-1.27,1.27s.57,1.27,1.27,1.27,1.27-.57,1.27-1.27-.57-1.27-1.27-1.27Z"/>
        <path class="cls-2" d="M10.2,51.15c-.96,0-1.73-.78-1.73-1.73s.78-1.73,1.73-1.73,1.73.78,1.73,1.73-.78,1.73-1.73,1.73ZM10.2,48.72c-.39,0-.7.31-.7.7s.31.7.7.7.7-.31.7-.7-.31-.7-.7-.7Z"/>
        <path class="cls-1" d="M34.65,44.1c-.9,0-1.63-.73-1.63-1.63s.73-1.63,1.63-1.63,1.63.73,1.63,1.63-.73,1.63-1.63,1.63ZM34.65,41.86c-.33,0-.6.27-.6.6s.27.6.6.6.6-.27.6-.6-.27-.6-.6-.6Z"/>
        <path class="cls-1" d="M41.46,46.38c-1.09,0-1.98-.89-1.98-1.98s.89-1.98,1.98-1.98,1.98.89,1.98,1.98-.89,1.98-1.98,1.98ZM41.46,43.45c-.53,0-.95.43-.95.95s.43.95.95.95.95-.43.95-.95-.43-.95-.95-.95Z"/>
        <path class="cls-1" d="M47.38,41.96c-.87,0-1.58-.71-1.58-1.58s.71-1.58,1.58-1.58,1.58.71,1.58,1.58-.71,1.58-1.58,1.58ZM47.38,39.82c-.31,0-.55.25-.55.55s.25.55.55.55.55-.25.55-.55-.25-.55-.55-.55Z"/>
        <path class="cls-2" d="M45.55,58.01c-.7,0-1.26-.57-1.26-1.26s.57-1.26,1.26-1.26,1.26.57,1.26,1.26-.57,1.26-1.26,1.26ZM45.55,56.52c-.13,0-.23.1-.23.23s.1.23.23.23.23-.1.23-.23-.1-.23-.23-.23Z"/>
        <path class="cls-2" d="M50.42,60c-1.02,0-1.86-.83-1.86-1.86s.83-1.86,1.86-1.86,1.86.83,1.86,1.86-.83,1.86-1.86,1.86ZM50.42,57.31c-.46,0-.83.37-.83.83s.37.83.83.83.83-.37.83-.83-.37-.83-.83-.83Z"/>
        <path class="cls-1" d="M57.46,43.85c-1.09,0-1.98-.89-1.98-1.98s.89-1.98,1.98-1.98,1.98.89,1.98,1.98-.89,1.98-1.98,1.98ZM57.46,40.91c-.53,0-.95.43-.95.95s.43.95.95.95.95-.43.95-.95-.43-.95-.95-.95Z"/>
        <path class="cls-2" d="M57.14,67.15c-.72,0-1.31-.59-1.31-1.31s.59-1.31,1.31-1.31,1.31.59,1.31,1.31-.59,1.31-1.31,1.31ZM57.14,65.56c-.15,0-.28.13-.28.28s.13.28.28.28.28-.13.28-.28-.13-.28-.28-.28Z"/>
      </g>
    </g>
  </g>
</svg>