<?xml version="1.0" encoding="UTF-8"?>
<svg id="Calque_2" data-name="Calque 2" xmlns="http://www.w3.org/2000/svg" viewBox="0 0 55.2 95.45">
  <defs>
    <style>
      .cls-1 {
        fill: none;
      }

      .cls-2 {
        fill: #10069f;
      }

      .cls-3 {
        fill: #fff;
      }
    </style>
  </defs>
  <g id="Calque_1-2" data-name="Calque 1">
    <polygon class="cls-2" points=".25 25.81 .25 73.25 4.97 74.52 17.52 75.23 24.91 75.31 39.61 73 49.58 69.6 54 68.11 54 36.42 48.97 36.59 33.96 36.05 21.14 33.55 8.21 29.35 .25 25.81"/>
    <g>
      <path class="cls-3" d="M19.47,65.98c-6.2,0-8.8-5.9-8.8-11.9s2.6-11.9,8.8-11.9,8.8,5.9,8.8,11.9-2.6,11.9-8.8,11.9ZM19.47,44.98c-3.7,0-5.5,3.8-5.5,9.1s1.8,9.1,5.5,9.1,5.5-3.8,5.5-9.1-1.8-9.1-5.5-9.1Z"/>
      <path class="cls-3" d="M33.96,49.59c-2.06,0-3.59-1.53-3.59-3.72s1.53-3.66,3.59-3.66,3.59,1.53,3.59,3.66-1.53,3.72-3.59,3.72ZM33.96,43.61c-1.26,0-2.06.93-2.06,2.33s.8,2.26,2.06,2.26,2.06-.93,2.06-2.26-.8-2.33-2.06-2.33ZM43.61,42.61l-9.51,15.49-1.13-.66,9.51-15.56,1.13.66h0v.07ZM42.61,57.9c-2.06,0-3.59-1.46-3.59-3.66s1.53-3.66,3.59-3.66,3.59,1.46,3.59,3.66-1.53,3.66-3.59,3.66ZM42.61,51.92c-1.26,0-2.06,1-2.06,2.33s.8,2.33,2.06,2.33,2.06-.93,2.06-2.33-.8-2.33-2.06-2.33Z"/>
    </g>
    <g>
      <path class="cls-1" d="M29.9,36.1c-10.22-1.7-20.07-4.94-29.4-9.52v45.73c5.26,1.23,10.88,2,16.6,2.19,11.99.29,23.78-2.08,35.2-7.01v-4.99l.06-6.94.04-9.76v-8.35c-1.56.08-3.23.15-4.9.15-5.7,0-11.6-.5-17.6-1.5Z"/>
      <path class="cls-1" d="M52.4,35.45v-16.95c-8.3,3.1-17,4.6-25.9,4.6s-17.7-1.6-26-4.6v5.84c9.4,4.71,19.36,8,29.7,9.76,7.58,1.25,15.07,1.75,22.2,1.35Z"/>
      <path class="cls-1" d="M52.31,67.48s.06-.03.09-.04v-16.74l-.04,4.86-.05,11.92Z"/>
      <path class="cls-1" d="M19.1,76.4h-2.1c-5.74-.19-11.28-.92-16.5-2.09v5.99c16.6,7,35.3,7,51.9,0v-10.7c-10.8,4.63-21.96,6.9-33.3,6.9v-.1Z"/>
      <path class="cls-1" d="M37.5,6.5c1.7-.8,3.3-1.7,4.8-2.8.3-.2.3-.4.3-.7-.1-.3-.2-.6-.5-.6-.3-.1-.7-.3-1.1-.4-.5-.2-.2-.2-1.5-.2s-2.6.6-3.4,1.6l-.5.6-2.4,2.9c.9-.1,2.1-.2,4-.4h.3Z"/>
      <path class="cls-1" d="M2.7,83.7c1.7,2.2,3.1,4.6,4.4,7.1,12.6,3.8,26.1,3.8,38.7,0,1.3-2.5,2.7-4.9,4.4-7.1-15.3,5.6-32.2,5.6-47.5,0Z"/>
      <path class="cls-1" d="M26.4,10.8c4.7,0,9.4-.4,14-1.2,4.6-.9,5.6-1.9,5.8-2.1-.1-.1-.7-.7-3-1.4-4.1,2.6-5,2.9-5.5,2.9h-.2c-1.6.2-3.1.4-4.7.4-.6,0-1.3-.1-1.9-.3-1.2.3-2.4.5-3.7.5-3,0-5.5-1-5.5-2.2s2.5-2.2,5.5-2.2h.2c1.2,0,2.5.2,3.7.6l1.3-1.6c-1.9-.2-1.2-.2-5.9-.2s-9.4.4-14,1.2h-.1v.3c-4.6.9-5.6,1.9-5.8,2.1.2.2,1.2,1.2,5.8,2.1,4.6.8,9.3,1.1,14,1.1Z"/>
      <path class="cls-1" d="M46.3,9.9c-1.6.8-3.2,1.3-4.9,1.6-4.9.9-10,1.3-15,1.3-5,.1-10-.4-15-1.3-1.7-.3-3.3-.9-4.9-1.6h-.1c-.3,2.8-1.8,5.3-4.1,6.9,15.6,5.4,32.5,5.4,48.1,0-2.3-1.6-3.8-4.1-4.1-6.9Z"/>
      <path class="cls-2" d="M54.7,16.8v-.1l-.1-.3c-3.7-1.1-5.4-3.8-5.3-8.5v-.2c0-1.3-1.3-2.4-3.8-3.2.4-1.6-.4-3.2-1.9-3.7-.3-.1-.7-.3-1.1-.4-.7-.3-1.5-.4-2.2-.4-1.9,0-3.8.9-5.1,2.4h-.1c-2.5,0-5.1-.2-7.8-.2h-.8c-4.8,0-9.5.4-14.2,1.3-4.7,1-7,2.4-7,4.3,0,4.7-1.7,7.5-5.3,8.5v7.8c.17.08.33.16.5.24v-5.84c8.3,3,17.1,4.6,26,4.6s17.6-1.5,25.9-4.6v16.95c.3-.02.6-.03.9-.05v2c-.29.02-.6.03-.9.05v30c.27-.12.53-.22.8-.34l.8,1.8c-.53.24-1.07.47-1.6.7v10.7c-16.6,7-35.3,7-51.9,0v-5.99c-.17-.04-.34-.07-.5-.1v7.2c2.6,3.3,4.9,6.8,6.8,10.5v.2s.03.07.1.2h.2c13.4,4.2,27.7,4.2,41,0h.3v-.2c1.9-3.8,4.1-7.3,6.8-10.5V16.8h-.5ZM35.6,4l.5-.6c.8-1,2.1-1.6,3.4-1.6s1,0,1.5.2c.4.1.8.3,1.1.4.3,0,.4.3.5.6,0,.3,0,.5-.3.7-1.5,1.1-3.1,2-4.8,2.8h-.3c-1.9.2-3.1.3-4,.4l2.4-2.9ZM12.4,5.5v-.3h.1c4.6-.8,9.3-1.2,14-1.2s4,0,5.9.2l-1.3,1.6c-1.2-.4-2.5-.6-3.7-.6h-.2c-3,0-5.5,1-5.5,2.2s2.5,2.2,5.5,2.2c1.3,0,2.5-.2,3.7-.5.6.2,1.3.3,1.9.3,1.6,0,3.1-.2,4.7-.4h.2c.5,0,1.4-.3,5.5-2.9,2.3.7,2.9,1.3,3,1.4-.2.2-1.2,1.2-5.8,2.1-4.6.8-9.3,1.2-14,1.2s-9.4-.3-14-1.1c-4.6-.9-5.6-1.9-5.8-2.1.2-.2,1.2-1.2,5.8-2.1ZM2.3,16.8c2.3-1.6,3.8-4.1,4.1-6.9h.1c1.6.7,3.2,1.3,4.9,1.6,5,.9,10,1.4,15,1.3,5,0,10.1-.4,15-1.3,1.7-.3,3.3-.8,4.9-1.6.3,2.8,1.8,5.3,4.1,6.9-15.6,5.4-32.5,5.4-48.1,0ZM45.8,90.8c-12.6,3.8-26.1,3.8-38.7,0-1.3-2.5-2.7-4.9-4.4-7.1,15.3,5.6,32.2,5.6,47.5,0-1.7,2.2-3.1,4.6-4.4,7.1Z"/>
      <path class="cls-2" d="M.5,70.5V26.58c-.17-.08-.33-.16-.5-.24v45.86c.16.04.34.07.5.11v-1.81Z"/>
      <polygon class="cls-2" points="52.4 50.7 52.4 50.6 52.4 48.3 52.4 48.2 52.4 48.1 52.4 45.8 52.36 55.56 52.4 50.7"/>
      <polygon class="cls-2" points="52.36 55.56 52.3 62.5 52.3 65 52.3 67.49 52.31 67.48 52.36 55.56"/>
      <path class="cls-2" d="M29.9,36.1c6,1,11.9,1.5,17.6,1.5,1.67,0,3.34-.07,4.9-.15v-2c-7.13.4-14.62-.1-22.2-1.35-10.34-1.76-20.3-5.05-29.7-9.76v2.24c9.33,4.58,19.18,7.82,29.4,9.52Z"/>
      <path class="cls-2" d="M53.3,37.4v-2c-.3.02-.6.03-.9.05v2c.3-.02.61-.03.9-.05Z"/>
      <path class="cls-2" d="M.5,24.34c-.17-.08-.33-.16-.5-.24v2.24c.17.08.33.16.5.24v-2.24Z"/>
      <path class="cls-2" d="M52.3,69.5v-2.01c-11.42,4.93-23.21,7.31-35.2,7.01-5.72-.19-11.34-.96-16.6-2.19v2c5.22,1.17,10.76,1.9,16.5,2.09h2.1v.1c11.34,0,22.5-2.28,33.3-6.9v-2.15s-.06.03-.09.04v2.02Z"/>
      <path class="cls-2" d="M.5,72.31c-.16-.04-.34-.07-.5-.11v2c.16.04.33.07.5.1v-2Z"/>
      <path class="cls-2" d="M54,68.9l-.8-1.8c-.27.12-.53.23-.8.34v2.15c.53-.23,1.07-.46,1.6-.7Z"/>
      <polygon class="cls-2" points="52.31 67.48 52.3 67.49 52.3 69.5 52.31 67.48"/>
    </g>
  </g>
</svg>