<?xml version="1.0" encoding="UTF-8"?>
<svg id="Calque_2" data-name="Calque 2" xmlns="http://www.w3.org/2000/svg" viewBox="0 0 53 91.37">
  <defs>
    <style>
      .cls-1 {
        fill: #10069f;
      }

      .cls-2 {
        fill: #fff;
      }
    </style>
  </defs>
  <g id="Calque_1-2" data-name="Calque 1">
    <path class="cls-1" d="M50.5,45.97c-6.1,2.2-13.3,2.2-21.4,0-8.4-2.3-17.9-7-28.4-14v-14.3c8,2.9,16.4,4.4,24.9,4.4s16.9-1.5,24.9-4.4v28.4h0v-.1Z"/>
    <path class="cls-1" d="M52.6,77.97h0v-.3h0V15.77h0c-3.5-1.1-5.2-3.8-5.1-8.3h0c0-1.4-1.3-2.4-3.6-3.2.4-1.5-.4-3-1.8-3.5-.3-.1-.7-.2-1.1-.4h0c-2.5-.9-5.4-.1-7.1,2h-.1c-2.4,0-4.9-.2-7.5-.2h0c-4.8,0-9.7.4-14.4,1.3-4.5,1-6.8,2.3-6.8,4.1h0c0,4.5-1.6,7.2-5.1,8.2h0v.2h0v61.7h0v.3h0v.2h0c2.5,3.1,4.7,6.4,6.5,10h0v.2h.3c12.8,4,26.5,4,39.4,0h.3v-.2h0c1.8-3.6,4-6.9,6.5-10h0l-.4-.3v.1ZM.8,34.47c10.2,6.7,19.5,11.2,27.8,13.5h0c3.9,1.1,8,1.7,12.1,1.8,3.3,0,6.7-.5,9.9-1.5v11.3c-17.7,7.8-34.5,9.6-49.8,5.5v-30.6ZM50.5,45.97c-6.1,2.2-13.3,2.2-21.4,0-8.4-2.3-17.9-7-28.4-14v-14.3c8,2.9,16.4,4.4,24.9,4.4s16.9-1.5,24.9-4.4v28.4h0v-.1ZM.8,67.47c5.4,1.4,10.9,2.1,16.4,2.1s5.1,0,7.6-.4c8.9-1.1,17.5-3.4,25.7-7v14.8c-15.9,6.7-33.9,6.7-49.8,0v-9.4h0l.1-.1ZM38.2,1.37c.5,0,1,0,1.4.2.4.1.7.2,1.1.4h0c.3,0,.4.3.5.6,0,.3,0,.5-.3.7-1.4,1-3,1.9-4.6,2.7h-.3c-1.8.2-3,.3-3.8.3l2.3-2.8h0l.5-.6h0c.8-1,2-1.5,3.2-1.5h0ZM12.2,4.67c4.4-.8,8.9-1.1,13.4-1.1s3.9,0,5.7.2l-1.3,1.5h0c-1.2-.4-2.5-.6-3.7-.6-2.9,0-5.3.9-5.3,2.1s2.4,2.1,5.3,2.1h0c1.2,0,2.4-.2,3.5-.5.6.2,1.2.3,1.8.3,1.5,0,3-.2,4.5-.4h.2c.5,0,1.4-.3,5.3-2.8,2.2.6,2.8,1.2,2.9,1.4-.2.2-1.1,1.2-5.5,2s-8.9,1.2-13.4,1.1c-4.5,0-9-.3-13.4-1.1-4.4-.9-5.4-1.8-5.5-2,.2-.2,1.1-1.2,5.5-2h0v-.2ZM6.5,9.27c1.5.7,3.1,1.2,4.7,1.5,4.8.9,9.6,1.3,14.4,1.3s9.7-.4,14.4-1.3c1.6-.3,3.2-.8,4.7-1.5.2,2.7,1.7,5.1,3.9,6.6-14.9,5.2-31.2,5.2-46.1,0,2.2-1.5,3.7-3.9,3.9-6.6h.1ZM7.1,86.77c-1.2-2.4-2.6-4.7-4.2-6.8,14.7,5.4,30.9,5.4,45.6,0-1.6,2.2-3,4.4-4.2,6.8-12.1,3.7-25,3.7-37.2,0h0Z"/>
    <path class="cls-2" d="M45.38,23.72c-1.6-1.6-4-2.1-6.1-1.2-2.1.9-3.4,2.9-3.4,5.1s2.5,5.6,5.6,5.6c2.3,0,4.3-1.4,5.1-3.4.9-2.1.4-4.5-1.2-6.1ZM43.88,30.02c-1,1-2.4,1.2-3.6.7-1.3-.5-2.1-1.7-2.1-3.1s1.5-3.3,3.4-3.4l-.1.1c1.4,0,2.6.8,3.1,2.1.5,1.2.2,2.7-.7,3.6Z"/>
    <path class="cls-2" d="M43.18,36.02c-1.1,0-2.1.7-2.5,1.7-.4,1-.2,2.2.6,2.9.8.8,1.9,1,2.9.6s1.7-1.4,1.7-2.5-1.2-2.7-2.7-2.7ZM43.58,39.12h-.4v.1c-.2,0-.4,0-.4-.3s0-.4.1-.5c.1-.1.3-.2.5,0,.2,0,.3.2.3.4s0,.3-.1.3Z"/>
    <path class="cls-1" d="M.8,67.47c5.4,1.4,10.9,2.1,16.4,2.1s5.1,0,7.6-.4c8.9-1.1,17.5-3.4,25.7-7v14.8c-15.9,6.7-33.9,6.7-49.8,0v-9.4h0l.1-.1Z"/>
  </g>
</svg>