<?xml version="1.0" encoding="UTF-8"?>
<svg id="Calque_2" data-name="Calque 2" xmlns="http://www.w3.org/2000/svg" viewBox="0 0 46.41 116.15">
  <defs>
    <style>
      .cls-1 {
        fill: #10069f;
      }
    </style>
  </defs>
  <g id="Calque_1-2" data-name="Calque 1">
    <g id="garf5s.tif">
      <g>
        <path class="cls-1" d="M30.4,8.24h-1.1v2.35c1.35-.13,2.99.17,4.3,0,3.17-.44,5.61-1.54,9.08-.91,3.8.69,4.45,3.5,3.05,6.79-1.61,3.79-5.11,6.78-7.66,9.9.71.91,1.78,1.51,2.59,2.43,5.31,5.97,2.78,14.44,3.37,21.73.02.63-.09,1.28-.12,1.72-.51,8.16-.13,17.47-.14,25.72,0,8.81.56,18.63.02,27.31-.37,5.94-5.01,10.37-10.89,10.75-6.48.41-15.39-.33-21.91,0-5,.07-10.88-5.25-10.88-10.28L.01,50.91h-.01v-15.14c0-2.22,2.18-5.99,3.75-7.54.66-.65,1.52-1.08,2.17-1.74.28-3.77-.27-7.86.02-11.59.15-1.92,1.95-4.31,4-4.31h4.78v-2.35h-1.25C13.07,4.19,15.7.49,19.84.11c3.9-.36,8.08,0,9.96,3.95.09.19.6,1.51.6,1.6v2.59ZM16.14,5.89h11.75c-.44-1.32-1.45-2.62-2.79-3.09-.96-.34-5.36-.34-6.33,0-1.08.38-2.52,1.93-2.63,3.09ZM26.79,8.24h-9.56v2.35h9.56v-2.35ZM38.07,22.68c1.71-1.91,6.07-6.59,5.96-9.17-.05-1.08-1.54-1.43-2.43-1.5-1.45-.11-2.93.08-4.37.18-.57.3.15.58.26.8.13.28.58,1.54.58,1.76v7.92ZM35.57,24.56v-9.8c0-.47-.89-1.43-1.4-1.58l-24.06-.07c-.46-.14-1.64,1.07-1.64,1.34v10.12h27.11ZM2.35,48.56h39.17v-12c0-4.44-4.53-9.03-8.9-9.45-6.39,0-13.51-.67-19.86-.21s-10.07,4.5-10.42,10.59c-.21,3.62.17,7.43,0,11.07ZM41.52,50.91H2.28l.32,35.14c3.82.73,7.63,1,11.51,1.26,7.65.51,18.2.67,25.75-.86.45-.09,1.06-.2,1.4-.48l.25-35.06ZM41.27,88.56c-10.29,2.23-22.97,1.77-33.4.77l-5.27-.77v5.02c.69.01,1.41.08,2.09.18,9.83,1.42,23.68,2.06,33.5.44.98-.16,2.03-.59,3.07-.62v-5.02ZM41.27,96.09l-7.29,1.1c-8.99.85-19.93.3-28.8-.93-.82-.11-1.77-.04-2.57-.33v3.29c3.91.75,7.86,1,11.83,1.26,7.66.49,17.75.65,25.31-.83.45-.09,1.17-.28,1.53-.51v-3.06ZM41.27,101.74c-1.18.33-2.49.57-3.72.74-2.95.41-5.93.56-8.88.83h-9.32s-9.77-.63-9.77-.63l-6.97-.94v4.47c0,.11.62,1.86.72,2.1,1.22,2.8,4.27,4.99,7.34,5.2,6.91.48,16.44-.32,23.4-.08,2.98-.34,7.2-4.18,7.2-7.22v-4.47Z"/>
        <path class="cls-1" d="M36.66,46.99c-.96-5.87-.56-13.05-5.72-17.1l.16-.31c5.83,1.24,7.41,7.88,6.97,13.1-.07.86-.61,3.3-.98,4.04-.11.21-.16.33-.43.27Z"/>
      </g>
    </g>
    <polygon class="cls-1" points="1.44 49.52 18 49.52 33.85 50.29 42.17 50.29 42.17 86.39 36.43 88.56 12.2 88.56 1.76 86.77 1.44 49.52"/>
    <polygon class="cls-1" points="1.44 94.76 11.62 95.54 29.34 95.94 42.17 94.25 42.17 99.86 36.63 101.74 17.81 102.37 1.44 100.18 1.44 94.76"/>
  </g>
</svg>