<?xml version="1.0" encoding="UTF-8"?>
<svg id="Calque_2" data-name="Calque 2" xmlns="http://www.w3.org/2000/svg" viewBox="0 0 68.4 94">
  <defs>
    <style>
      .cls-1 {
        fill: #10069f;
      }
    </style>
  </defs>
  <g id="Calque_1-2" data-name="Calque 1">
    <path class="cls-1" d="M34.3.1C25.1.1,16.8,1.1,10.7,2.8c-3.1.9-5.6,1.9-7.5,3.1S0,8.7,0,10.7s0,0,0,0h0v.4l2.5,29.6v.3l3.8,44.4h0c0,1.7,1.2,2.9,2.7,3.9s3.6,1.8,6.1,2.5c5,1.4,11.7,2.2,19.1,2.2s14.2-.8,19.1-2.2c2.5-.7,4.5-1.5,6.1-2.5,1.5-1,2.7-2.3,2.7-3.9h0l3.8-44.4v-.2l2.5-29.8v-.3h0v-.3c0-1.9-1.4-3.4-3.2-4.6-1.9-1.2-4.4-2.3-7.5-3.1-6.1-1.7-14.4-2.7-23.6-2.7h0l.2.1ZM34.3,3c9,0,17.1,1,22.8,2.6,2.9.8,5.2,1.8,6.6,2.8,1.4.9,1.9,1.7,1.9,2.3v.3c-.2.5-.7,1.3-1.9,2.1-1.5,1-3.7,1.9-6.6,2.7-5.8,1.6-13.9,2.6-22.8,2.6s-17.1-1-22.8-2.6c-2.9-.8-5.2-1.8-6.6-2.7-1.3-.9-1.8-1.7-1.9-2.2h0c0-.7.5-1.5,1.9-2.5,1.5-1,3.7-1.9,6.6-2.8,5.8-1.6,13.9-2.6,22.8-2.6h0ZM3.4,15.7c1.9,1.2,4.3,2.2,7.3,3,6.1,1.7,14.4,2.8,23.6,2.8s17.5-1,23.6-2.8c3-.8,5.5-1.8,7.3-3l-2.1,25.2c0,.5-.5,1.2-1.7,1.9-1.3.9-3.4,1.8-6.1,2.5-5.3,1.5-12.8,2.4-21,2.4s-15.7-.9-21-2.4c-2.6-.7-4.8-1.6-6.1-2.5-1.2-.8-1.6-1.5-1.7-2L3.4,15.6v.1ZM34.3,30.7c-10.4,0-20,1.4-25.9,4-.4.2-.6.4-.8.8-.1.4-.1.8,0,1.1.2.4.4.6.8.8.4.1.8.1,1.1,0,5.2-2.2,14.7-3.7,24.8-3.7s19.5,1.5,24.8,3.7h0c.4.2.8.2,1.1,0,.4-.1.7-.4.8-.8.2-.4.2-.8,0-1.1-.1-.4-.4-.7-.8-.8-6-2.6-15.6-4-25.9-4h0Z"/>
  </g>
</svg>