<?xml version="1.0" encoding="UTF-8"?>
<svg id="Calque_2" data-name="Calque 2" xmlns="http://www.w3.org/2000/svg" viewBox="0 0 55.29 114.1">
  <defs>
    <style>
      .cls-1 {
        fill: #10069f;
      }
    </style>
  </defs>
  <g id="Calque_1-2" data-name="Calque 1">
    <g>
      <path class="cls-1" d="M31.64,70.6h.3c6.4-1,12.3-4,16.7-8.7,4.7-5,7-11.3,6.6-17.7l-2.2-35.2c0-2.6-2.8-4.9-7.8-6.6-4.7-1.6-11-2.4-17.6-2.4S14.74.9,10.04,2.4c-5.1,1.7-7.8,4-7.8,6.6L.04,44.2c-.4,6.4,2,12.7,6.6,17.7,4.4,4.7,10.3,7.7,16.7,8.7v2.5c0,2.2.2,22.4.1,25.4-7.7.7-15.6,3.3-15.6,7.7s2.2,4.4,6.1,5.8c3.6,1.3,8.5,2.1,13.6,2.1s10-.7,13.6-2.1c4-1.5,6.1-3.5,6.1-5.8,0-4.5-8-7.1-15.7-7.7,0-3,0-23.2.1-25.4v-2.5ZM27.64,2c13.8,0,23.5,3.8,23.5,7.2s-9.6,7.2-23.5,7.2S4.14,12.6,4.14,9.2,13.74,2,27.64,2ZM17.52,26.77c-7.16.68-12.38,2.83-14.88,4.83l1.2-19.1c1.3,1.2,3.4,2.3,6.1,3.2,4.7,1.6,11,2.4,17.6,2.4s12.9-.9,17.6-2.4c2.8-.9,4.8-2,6.1-3.2l1.2,19c-2.3-1.9-6.5-3.4-12.2-4.4-.5,0-1,.3-1.1.8,0,.5.3,1,.8,1.1,8.8,1.5,12.7,4.2,12.8,6.2,0,1.8-3,3.7-7.7,5.1-3.9.7-6.12,2.44-17.4,2.2-9.92-.21-16.1-2.2-20.7-3.3-2.8-1.2-4.5-2.6-4.5-3.9,0-2,4.57-6.11,15.08-6.7.5,0,.23-.25.13-.75,0-.5.37-1.13-.13-1.08ZM32.14,106.3c.5-.3.6-.9.3-1.4-.4-.6-.6-2.3-.7-4.5,8.5.7,13.7,3.5,13.7,5.8s-7.3,6-17.8,6-17.8-3.2-17.8-6,5.2-5,13.6-5.8c0,2.2-.3,4-.7,4.6-.3.5-.2,1,.3,1.3.2.1.3.2.5.2.3,0,.6-.2.8-.4,1.3-2,1.2-25.6,1-33.1v-2.2h4.8v2.2c0,3.4-.2,23.6-.1,26.3,0,3.2.4,5.7,1,6.7.2.3.5.4.8.4s.4,0,.5-.1h-.2Z"/>
      <path class="cls-1" d="M27.61,28.2c2.48.06,5.36.1,7.93.4h.2c.5,0,.9-.4,1-.9,0-.5-.3-1-.9-1.1-2.6-.3-5.4-.4-8.2-.4-.02,0-.03,0-.05,0-.02,0-.03,0-.05,0-2.8,0-7.62.37-10.02.57-.5,0,.13.48.13,1.08,0,.5-2.74,1.12-.13.75,0,0,6.87-.48,10.09-.4Z"/>
    </g>
  </g>
</svg>